<!-- icon666.com - MILLIONS OF FREE VECTOR ICONS --><svg version="1.1" id="Capa_1" xmlns="http://www.w3.org/2000/svg" xmlns:xlink="http://www.w3.org/1999/xlink" x="0px" y="0px" viewBox="0 0 512 512" style="enable-background:new 0 0 512 512;" xml:space="preserve"><g><g><g><path d="M508.736,339.605c-4.203-4.096-10.965-3.968-15.083,0.235L362.667,475.008V224c0-5.888-4.779-10.667-10.667-10.667 c-5.888,0-10.667,4.779-10.667,10.667v251.008L210.325,339.84c-4.096-4.203-10.837-4.331-15.083-0.235 c-4.224,4.096-4.331,10.859-0.256,15.083L344.32,508.757c0.021,0.021,0.064,0.021,0.085,0.064 c0.981,0.981,2.133,1.792,3.413,2.347C349.12,511.701,350.528,512,352,512c1.472,0,2.88-0.299,4.16-0.832 c1.301-0.555,2.453-1.344,3.413-2.347c0.021-0.021,0.064-0.021,0.085-0.064l149.333-154.069 C513.067,350.464,512.981,343.701,508.736,339.605z"></path><path d="M309.333,175.403c2.667,0,5.355-1.003,7.424-3.008c4.224-4.096,4.331-10.859,0.256-15.083L167.659,3.243 c-0.021-0.021-0.043-0.043-0.064-0.064C165.653,1.216,162.987,0,160,0c-2.987,0-5.653,1.216-7.595,3.179 c-0.021,0.021-0.043,0.043-0.064,0.064L3.008,157.312c-4.075,4.224-3.989,10.987,0.256,15.083 c4.245,4.117,10.965,4.011,15.061-0.235L149.333,36.992V288c0,5.888,4.779,10.667,10.667,10.667s10.667-4.779,10.667-10.667 V36.992L301.675,172.16C303.787,174.315,306.56,175.403,309.333,175.403z"></path></g></g></g></svg>